# xmcd
#
# Track frame offsets:
#	150
#	29589
#	46321
#	61288
#	78949
#	89143
#	102380
#	116606
#	125780
#	138803
#	153354
#	172494
#	186291
#	205576
#	220572
#	238372
#	253329
#	267001
#	283396
#	295559
#	309098
#
# Disc length: 4310 seconds
#
# Revision: 2
# Processed by: cddbd v1.5.2PL0 Copyright (c) Steve Scherf et al.
# Submitted via: audiograbber 1.83.01
#
DISCID=4010d415
DTITLE=Ray Charles - His Greatest Hits - CD1
DYEAR=2003
DGENRE=Variété Internationale
TTITLE0=What'd I Say, Parts 1 and 2
TTITLE1=Georgia On My Mind
TTITLE2=Hardhearted Hannah
TTITLE3=Ruby
TTITLE4=Sticks And Stones
TTITLE5=Them That Got
TTITLE6=One Mint Julep
TTITLE7=Hit The Road Jack
TTITLE8=Unchain My Heart
TTITLE9=Hide Nor Hair
TTITLE10=Baby, Its Cold Outside
TTITLE11=At The Club
TTITLE12=I Can't Stop Loving You
TTITLE13=Born To Lose
TTITLE14=Careless Love
TTITLE15=You Don't Know Me
TTITLE16=You Are My Sunshine
TTITLE17=Your Cheating Heart
TTITLE18=Don't Set Me Free
TTITLE19=Take These Chains From My Heart
TTITLE20=No One
EXTD=
EXTT0=
EXTT1=
EXTT2=
EXTT3=
EXTT4=
EXTT5=
EXTT6=
EXTT7=
EXTT8=
EXTT9=
EXTT10=
EXTT11=
EXTT12=
EXTT13=
EXTT14=
EXTT15=
EXTT16=
EXTT17=
EXTT18=
EXTT19=
EXTT20=
PLAYORDER=
